<?xml version="1.0" encoding="UTF-8" standalone="no"?>
<!DOCTYPE svg PUBLIC "-//W3C//DTD SVG 1.1//EN"
 "http://www.w3.org/Graphics/SVG/1.1/DTD/svg11.dtd">
<!-- Generated by graphviz version 2.40.1 (20161225.0304)
 -->
<!-- Title: qa Pages: 1 -->
<svg width="1880pt" height="429pt"
 viewBox="0.00 0.00 1880.00 429.00" xmlns="http://www.w3.org/2000/svg" xmlns:xlink="http://www.w3.org/1999/xlink">
<g id="graph0" class="graph" transform="scale(1 1) rotate(0) translate(4 425)">
<title>qa</title>
<polygon fill="#ffffff" stroke="transparent" points="-4,4 -4,-425 1876,-425 1876,4 -4,4"/>
<!-- public.flyway_schema_history_tool_manager -->
<g id="node1" class="node">
<title>public.flyway_schema_history_tool_manager</title>
<polygon fill="#efefef" stroke="transparent" points="43.5,-342.5 43.5,-377.5 542.5,-377.5 542.5,-342.5 43.5,-342.5"/>
<polygon fill="none" stroke="#000000" points="43.5,-342.5 43.5,-377.5 542.5,-377.5 542.5,-342.5 43.5,-342.5"/>
<text text-anchor="start" x="50.1826" y="-355.3" font-family="Arial Bold" font-size="18.00" fill="#000000">public.flyway_schema_history_tool_manager</text>
<text text-anchor="start" x="408.2494" y="-355.3" font-family="Arial" font-size="14.00" fill="#000000">    </text>
<text text-anchor="start" x="442.4542" y="-355.3" font-family="Arial" font-size="14.00" fill="#666666">[BASE TABLE]</text>
<polygon fill="none" stroke="#000000" points="43.5,-312.5 43.5,-342.5 542.5,-342.5 542.5,-312.5 43.5,-312.5"/>
<text text-anchor="start" x="50.5" y="-323.9" font-family="Arial" font-size="14.00" fill="#000000">installed_rank    </text>
<text text-anchor="start" x="171.054" y="-323.9" font-family="Arial" font-size="14.00" fill="#666666">[integer]</text>
<polygon fill="none" stroke="#000000" points="43.5,-282.5 43.5,-312.5 542.5,-312.5 542.5,-282.5 43.5,-282.5"/>
<text text-anchor="start" x="50.5" y="-293.9" font-family="Arial" font-size="14.00" fill="#000000">version    </text>
<text text-anchor="start" x="129.8198" y="-293.9" font-family="Arial" font-size="14.00" fill="#666666">[varchar(50)]</text>
<polygon fill="none" stroke="#000000" points="43.5,-252.5 43.5,-282.5 542.5,-282.5 542.5,-252.5 43.5,-252.5"/>
<text text-anchor="start" x="50.5" y="-263.9" font-family="Arial" font-size="14.00" fill="#000000">description    </text>
<text text-anchor="start" x="152.3822" y="-263.9" font-family="Arial" font-size="14.00" fill="#666666">[varchar(200)]</text>
<polygon fill="none" stroke="#000000" points="43.5,-222.5 43.5,-252.5 542.5,-252.5 542.5,-222.5 43.5,-222.5"/>
<text text-anchor="start" x="50.5" y="-233.9" font-family="Arial" font-size="14.00" fill="#000000">type    </text>
<text text-anchor="start" x="111.1606" y="-233.9" font-family="Arial" font-size="14.00" fill="#666666">[varchar(20)]</text>
<polygon fill="none" stroke="#000000" points="43.5,-192.5 43.5,-222.5 542.5,-222.5 542.5,-192.5 43.5,-192.5"/>
<text text-anchor="start" x="50.5" y="-203.9" font-family="Arial" font-size="14.00" fill="#000000">script    </text>
<text text-anchor="start" x="118.1452" y="-203.9" font-family="Arial" font-size="14.00" fill="#666666">[varchar(1000)]</text>
<polygon fill="none" stroke="#000000" points="43.5,-162.5 43.5,-192.5 542.5,-192.5 542.5,-162.5 43.5,-162.5"/>
<text text-anchor="start" x="50.5" y="-173.9" font-family="Arial" font-size="14.00" fill="#000000">checksum    </text>
<text text-anchor="start" x="147.7132" y="-173.9" font-family="Arial" font-size="14.00" fill="#666666">[integer]</text>
<polygon fill="none" stroke="#000000" points="43.5,-132.5 43.5,-162.5 542.5,-162.5 542.5,-132.5 43.5,-132.5"/>
<text text-anchor="start" x="50.5" y="-143.9" font-family="Arial" font-size="14.00" fill="#000000">installed_by    </text>
<text text-anchor="start" x="158.6108" y="-143.9" font-family="Arial" font-size="14.00" fill="#666666">[varchar(100)]</text>
<polygon fill="none" stroke="#000000" points="43.5,-102.5 43.5,-132.5 542.5,-132.5 542.5,-102.5 43.5,-102.5"/>
<text text-anchor="start" x="50.5" y="-113.9" font-family="Arial" font-size="14.00" fill="#000000">installed_on    </text>
<text text-anchor="start" x="159.3934" y="-113.9" font-family="Arial" font-size="14.00" fill="#666666">[timestamp without time zone]</text>
<polygon fill="none" stroke="#000000" points="43.5,-72.5 43.5,-102.5 542.5,-102.5 542.5,-72.5 43.5,-72.5"/>
<text text-anchor="start" x="50.5" y="-83.9" font-family="Arial" font-size="14.00" fill="#000000">execution_time    </text>
<text text-anchor="start" x="178.838" y="-83.9" font-family="Arial" font-size="14.00" fill="#666666">[integer]</text>
<polygon fill="none" stroke="#000000" points="43.5,-42.5 43.5,-72.5 542.5,-72.5 542.5,-42.5 43.5,-42.5"/>
<text text-anchor="start" x="50.5" y="-53.9" font-family="Arial" font-size="14.00" fill="#000000">success    </text>
<text text-anchor="start" x="135.27" y="-53.9" font-family="Arial" font-size="14.00" fill="#666666">[boolean]</text>
</g>
<!-- public.tool -->
<g id="node2" class="node">
<title>public.tool</title>
<polygon fill="#efefef" stroke="transparent" points="646.5,-267.5 646.5,-302.5 929.5,-302.5 929.5,-267.5 646.5,-267.5"/>
<polygon fill="none" stroke="#000000" points="646.5,-267.5 646.5,-302.5 929.5,-302.5 929.5,-267.5 646.5,-267.5"/>
<text text-anchor="start" x="683.707" y="-280.3" font-family="Arial Bold" font-size="18.00" fill="#000000">public.tool</text>
<text text-anchor="start" x="764.725" y="-280.3" font-family="Arial" font-size="14.00" fill="#000000">    </text>
<text text-anchor="start" x="798.9298" y="-280.3" font-family="Arial" font-size="14.00" fill="#666666">[BASE TABLE]</text>
<polygon fill="none" stroke="#000000" points="646.5,-237.5 646.5,-267.5 929.5,-267.5 929.5,-237.5 646.5,-237.5"/>
<text text-anchor="start" x="653.5" y="-248.9" font-family="Arial" font-size="14.00" fill="#000000">id    </text>
<text text-anchor="start" x="698.594" y="-248.9" font-family="Arial" font-size="14.00" fill="#666666">[bigint]</text>
<polygon fill="none" stroke="#000000" points="646.5,-207.5 646.5,-237.5 929.5,-237.5 929.5,-207.5 646.5,-207.5"/>
<text text-anchor="start" x="653.5" y="-218.9" font-family="Arial" font-size="14.00" fill="#000000">name    </text>
<text text-anchor="start" x="722.7132" y="-218.9" font-family="Arial" font-size="14.00" fill="#666666">[varchar(64)]</text>
<polygon fill="none" stroke="#000000" points="646.5,-177.5 646.5,-207.5 929.5,-207.5 929.5,-177.5 646.5,-177.5"/>
<text text-anchor="start" x="653.5" y="-188.9" font-family="Arial" font-size="14.00" fill="#000000">description    </text>
<text text-anchor="start" x="755.3822" y="-188.9" font-family="Arial" font-size="14.00" fill="#666666">[varchar(1024)]</text>
<polygon fill="none" stroke="#000000" points="646.5,-147.5 646.5,-177.5 929.5,-177.5 929.5,-147.5 646.5,-147.5"/>
<text text-anchor="start" x="653.5" y="-158.9" font-family="Arial" font-size="14.00" fill="#000000">created_at    </text>
<text text-anchor="start" x="753.8422" y="-158.9" font-family="Arial" font-size="14.00" fill="#666666">[timestamp with time zone]</text>
<polygon fill="none" stroke="#000000" points="646.5,-117.5 646.5,-147.5 929.5,-147.5 929.5,-117.5 646.5,-117.5"/>
<text text-anchor="start" x="653.0344" y="-128.9" font-family="Arial" font-size="14.00" fill="#000000">updated_at    </text>
<text text-anchor="start" x="757.2812" y="-128.9" font-family="Arial" font-size="14.00" fill="#666666">[timestamp with time zone]</text>
</g>
<!-- public.flyway_schema_history_qa -->
<g id="node3" class="node">
<title>public.flyway_schema_history_qa</title>
<polygon fill="#efefef" stroke="transparent" points="1033.5,-342.5 1033.5,-377.5 1442.5,-377.5 1442.5,-342.5 1033.5,-342.5"/>
<polygon fill="none" stroke="#000000" points="1033.5,-342.5 1033.5,-377.5 1442.5,-377.5 1442.5,-342.5 1033.5,-342.5"/>
<text text-anchor="start" x="1040.1916" y="-355.3" font-family="Arial Bold" font-size="18.00" fill="#000000">public.flyway_schema_history_qa</text>
<text text-anchor="start" x="1308.2404" y="-355.3" font-family="Arial" font-size="14.00" fill="#000000">    </text>
<text text-anchor="start" x="1342.4452" y="-355.3" font-family="Arial" font-size="14.00" fill="#666666">[BASE TABLE]</text>
<polygon fill="none" stroke="#000000" points="1033.5,-312.5 1033.5,-342.5 1442.5,-342.5 1442.5,-312.5 1033.5,-312.5"/>
<text text-anchor="start" x="1040.5" y="-323.9" font-family="Arial" font-size="14.00" fill="#000000">installed_rank    </text>
<text text-anchor="start" x="1161.054" y="-323.9" font-family="Arial" font-size="14.00" fill="#666666">[integer]</text>
<polygon fill="none" stroke="#000000" points="1033.5,-282.5 1033.5,-312.5 1442.5,-312.5 1442.5,-282.5 1033.5,-282.5"/>
<text text-anchor="start" x="1040.5" y="-293.9" font-family="Arial" font-size="14.00" fill="#000000">version    </text>
<text text-anchor="start" x="1119.8198" y="-293.9" font-family="Arial" font-size="14.00" fill="#666666">[varchar(50)]</text>
<polygon fill="none" stroke="#000000" points="1033.5,-252.5 1033.5,-282.5 1442.5,-282.5 1442.5,-252.5 1033.5,-252.5"/>
<text text-anchor="start" x="1040.5" y="-263.9" font-family="Arial" font-size="14.00" fill="#000000">description    </text>
<text text-anchor="start" x="1142.3822" y="-263.9" font-family="Arial" font-size="14.00" fill="#666666">[varchar(200)]</text>
<polygon fill="none" stroke="#000000" points="1033.5,-222.5 1033.5,-252.5 1442.5,-252.5 1442.5,-222.5 1033.5,-222.5"/>
<text text-anchor="start" x="1040.5" y="-233.9" font-family="Arial" font-size="14.00" fill="#000000">type    </text>
<text text-anchor="start" x="1101.1606" y="-233.9" font-family="Arial" font-size="14.00" fill="#666666">[varchar(20)]</text>
<polygon fill="none" stroke="#000000" points="1033.5,-192.5 1033.5,-222.5 1442.5,-222.5 1442.5,-192.5 1033.5,-192.5"/>
<text text-anchor="start" x="1040.5" y="-203.9" font-family="Arial" font-size="14.00" fill="#000000">script    </text>
<text text-anchor="start" x="1108.1452" y="-203.9" font-family="Arial" font-size="14.00" fill="#666666">[varchar(1000)]</text>
<polygon fill="none" stroke="#000000" points="1033.5,-162.5 1033.5,-192.5 1442.5,-192.5 1442.5,-162.5 1033.5,-162.5"/>
<text text-anchor="start" x="1040.5" y="-173.9" font-family="Arial" font-size="14.00" fill="#000000">checksum    </text>
<text text-anchor="start" x="1137.7132" y="-173.9" font-family="Arial" font-size="14.00" fill="#666666">[integer]</text>
<polygon fill="none" stroke="#000000" points="1033.5,-132.5 1033.5,-162.5 1442.5,-162.5 1442.5,-132.5 1033.5,-132.5"/>
<text text-anchor="start" x="1040.5" y="-143.9" font-family="Arial" font-size="14.00" fill="#000000">installed_by    </text>
<text text-anchor="start" x="1148.6108" y="-143.9" font-family="Arial" font-size="14.00" fill="#666666">[varchar(100)]</text>
<polygon fill="none" stroke="#000000" points="1033.5,-102.5 1033.5,-132.5 1442.5,-132.5 1442.5,-102.5 1033.5,-102.5"/>
<text text-anchor="start" x="1040.5" y="-113.9" font-family="Arial" font-size="14.00" fill="#000000">installed_on    </text>
<text text-anchor="start" x="1149.3934" y="-113.9" font-family="Arial" font-size="14.00" fill="#666666">[timestamp without time zone]</text>
<polygon fill="none" stroke="#000000" points="1033.5,-72.5 1033.5,-102.5 1442.5,-102.5 1442.5,-72.5 1033.5,-72.5"/>
<text text-anchor="start" x="1040.5" y="-83.9" font-family="Arial" font-size="14.00" fill="#000000">execution_time    </text>
<text text-anchor="start" x="1168.838" y="-83.9" font-family="Arial" font-size="14.00" fill="#666666">[integer]</text>
<polygon fill="none" stroke="#000000" points="1033.5,-42.5 1033.5,-72.5 1442.5,-72.5 1442.5,-42.5 1033.5,-42.5"/>
<text text-anchor="start" x="1040.5" y="-53.9" font-family="Arial" font-size="14.00" fill="#000000">success    </text>
<text text-anchor="start" x="1125.27" y="-53.9" font-family="Arial" font-size="14.00" fill="#666666">[boolean]</text>
</g>
<!-- public.qa -->
<g id="node4" class="node">
<title>public.qa</title>
<polygon fill="#efefef" stroke="transparent" points="1546.5,-282.5 1546.5,-317.5 1829.5,-317.5 1829.5,-282.5 1546.5,-282.5"/>
<polygon fill="none" stroke="#000000" points="1546.5,-282.5 1546.5,-317.5 1829.5,-317.5 1829.5,-282.5 1546.5,-282.5"/>
<text text-anchor="start" x="1588.2052" y="-295.3" font-family="Arial Bold" font-size="18.00" fill="#000000">public.qa</text>
<text text-anchor="start" x="1660.2268" y="-295.3" font-family="Arial" font-size="14.00" fill="#000000">    </text>
<text text-anchor="start" x="1694.4316" y="-295.3" font-family="Arial" font-size="14.00" fill="#666666">[BASE TABLE]</text>
<polygon fill="none" stroke="#000000" points="1546.5,-252.5 1546.5,-282.5 1829.5,-282.5 1829.5,-252.5 1546.5,-252.5"/>
<text text-anchor="start" x="1553.5" y="-263.9" font-family="Arial" font-size="14.00" fill="#000000">id    </text>
<text text-anchor="start" x="1598.594" y="-263.9" font-family="Arial" font-size="14.00" fill="#666666">[bigint]</text>
<polygon fill="none" stroke="#000000" points="1546.5,-222.5 1546.5,-252.5 1829.5,-252.5 1829.5,-222.5 1546.5,-222.5"/>
<text text-anchor="start" x="1553.5" y="-233.9" font-family="Arial" font-size="14.00" fill="#000000">tool_id    </text>
<text text-anchor="start" x="1628.939" y="-233.9" font-family="Arial" font-size="14.00" fill="#666666">[bigint]</text>
<polygon fill="none" stroke="#000000" points="1546.5,-192.5 1546.5,-222.5 1829.5,-222.5 1829.5,-192.5 1546.5,-192.5"/>
<text text-anchor="start" x="1553.5" y="-203.9" font-family="Arial" font-size="14.00" fill="#000000">question    </text>
<text text-anchor="start" x="1640.615" y="-203.9" font-family="Arial" font-size="14.00" fill="#666666">[text]</text>
<polygon fill="none" stroke="#000000" points="1546.5,-162.5 1546.5,-192.5 1829.5,-192.5 1829.5,-162.5 1546.5,-162.5"/>
<text text-anchor="start" x="1553.5" y="-173.9" font-family="Arial" font-size="14.00" fill="#000000">answer    </text>
<text text-anchor="start" x="1632.8198" y="-173.9" font-family="Arial" font-size="14.00" fill="#666666">[text]</text>
<polygon fill="none" stroke="#000000" points="1546.5,-132.5 1546.5,-162.5 1829.5,-162.5 1829.5,-132.5 1546.5,-132.5"/>
<text text-anchor="start" x="1553.5" y="-143.9" font-family="Arial" font-size="14.00" fill="#000000">created_at    </text>
<text text-anchor="start" x="1653.8422" y="-143.9" font-family="Arial" font-size="14.00" fill="#666666">[timestamp with time zone]</text>
<polygon fill="none" stroke="#000000" points="1546.5,-102.5 1546.5,-132.5 1829.5,-132.5 1829.5,-102.5 1546.5,-102.5"/>
<text text-anchor="start" x="1553.0344" y="-113.9" font-family="Arial" font-size="14.00" fill="#000000">updated_at    </text>
<text text-anchor="start" x="1657.2812" y="-113.9" font-family="Arial" font-size="14.00" fill="#666666">[timestamp with time zone]</text>
</g>
</g>
</svg>
